<svg width="16" height="16" viewBox="0 0 16 16" fill="none" xmlns="http://www.w3.org/2000/svg">
<path d="M15.5 13H5V12.5C5 12.225 4.775 12 4.5 12H3.5C3.225 12 3 12.225 3 12.5V13H0.5C0.225 13 0 13.225 0 13.5V14.5C0 14.775 0.225 15 0.5 15H3V15.5C3 15.775 3.225 16 3.5 16H4.5C4.775 16 5 15.775 5 15.5V15H15.5C15.775 15 16 14.775 16 14.5V13.5C16 13.225 15.775 13 15.5 13ZM15.5 8H13V7.5C13 7.225 12.775 7 12.5 7H11.5C11.225 7 11 7.225 11 7.5V8H0.5C0.225 8 0 8.225 0 8.5V9.5C0 9.775 0.225 10 0.5 10H11V10.5C11 10.775 11.225 11 11.5 11H12.5C12.775 11 13 10.775 13 10.5V10H15.5C15.775 10 16 9.775 16 9.5V8.5C16 8.225 15.775 8 15.5 8ZM15.5 3H9V2.5C9 2.225 8.775 2 8.5 2H7.5C7.225 2 7 2.225 7 2.5V3H0.5C0.225 3 0 3.225 0 3.5V4.5C0 4.775 0.225 5 0.5 5H7V5.5C7 5.775 7.225 6 7.5 6H8.5C8.775 6 9 5.775 9 5.5V5H15.5C15.775 5 16 4.775 16 4.5V3.5C16 3.225 15.775 3 15.5 3Z" fill="white"/>
</svg>
